<svg xmlns="http://www.w3.org/2000/svg" xmlns:xlink="http://www.w3.org/1999/xlink" viewBox="-90 50 1300 768">
    <defs>
        <clipPath id="a">
            <rect x="997.82" y="16.49" width="292.68" height="128.52" fill="none"/>
        </clipPath>
    </defs>
    <!-- blue blob at top-->
    <path class="blue-blob" d="M275.06,127.61A178.49,178.49,0,0,0,391.27,94.8c25.07-18,47.67-43.63,78.38-46.92,6.56-.7,13.75-.11,18.83,4.1,4.47,3.71,6.51,9.53,8.09,15.12,6.56,23.26,8.73,48.28,21,69.09s40,35.66,60.88,23.51c17.3-10.07,21.53-32.56,26.49-51.95s16.67-41.48,36.68-42c19.51-.57,35.81,20.56,55,16.92,7.2-1.36,13.29-6.12,18.45-11.32,41.53-41.86,35.48-112.09,11.15-165.81C671.06-216.37,532.39-294.64,399.55-278.88" fill="#c2e3d3" transform='translate(-100 0)'/>
    
    <path class="blue-blob" d="M452.13-286.53c-47.18,22-102.35,24.29-147.33,50.47-37.18,21.65-64.12,58.18-80.38,98s-22.65,83-25.82,125.9c-3.43,46.35.68,101,39.28,126.84,35.36,23.72,82.61,11.8,123.24-.93l.21-13.64" fill="#c2e3d3" transform='translate(-100 0)'/>
    
    <path class="blue-blob" d="M387.69,54.27c8.76-27.63,13.59-60.57-5.61-83.68C365.81-49,337.3-54.78,311.48-54.59s-51.73,5-77.28.69C187.37-61.7,151.13-97.62,108-117.41c-96.35-44.26-212.46-3.22-313.62-35.53l-.41-1L-369.65-99.06c-27,9-54.22,18.23-77.84,33.37S-491.08-28.63-497.32-2s3.88,58.08,28.45,73.13c26.78,16.41,61.62,10.1,90.72-.45s58.12-25,89.54-23.25c8.56.48,17.6,2.45,23.82,8.23,5.18,4.79,7.71,11.59,9.17,18.28,6.71,30.67-5.63,61.5-7,92.6-2.39,56.24,32.07,110.18,77.16,147.85,11.23,9.39,24.32,18.42,39.06,18.8,19.64.51,35.54-14.51,45.2-30.56,19.93-33.16,23.68-74.2,46.28-105.73,3.1-4.35,7.11-8.78,12.65-9.38s11,3.06,15.1,7C-9.51,211.85-3.88,237-1.56,260.67,3,307-2,354.19,9.66,399.58S56,490.46,104.51,496.25c13.06,1.55,27.14-.2,37.08-8.09,5.21-4.14,9-9.71,12-15.53,17.51-34.1,9.6-75.32-1.28-112.56s-24.53-75.72-17.39-113.29c1.31-6.88,3.38-13.75,7.51-19.45,11.79-16.29,36.4-18.44,57.19-14.91s41.5,11.21,62.32,8.94,41.6-20.2,35.82-39.62c-6.15-20.7-34.56-25.71-51.26-40.39-2.05-1.8-4-4-4.07-6.64,0-2.92,2.43-5.21,4.84-7C282,102.68,340,119.2,369.72,88.83,379,79.37,383.75,66.72,387.69,54.27Z" fill="#c2e3d3" transform='translate(-100 0)'/>
    
     <path class="blue-blob" d="M425.92,52.48c3.22,0,3.22-5,0-5s-3.22,5,0,5Z" fill="#c2e3d3"/>
    
    <path class="blue-blob" d="M425.92,52.48c3.22,0,3.22-5,0-5s-3.22,5,0,5Z" fill="#c2e3d3"/>
    
    <path class="blue-blob" d="M466.92,27.48c3.22,0,3.22-5,0-5s-3.22,5,0,5Z" fill="#c2e3d3"/>
    
    <path class="blue-blob" d="M125.11,452.86c-.24,1.93,1.74,3.35,3.49,3.29a3.67,3.67,0,0,0,2.46-1,3.2,3.2,0,0,0,.81-3,2.52,2.52,0,0,0-3.08-1.75,2.56,2.56,0,0,0-1.74,3.08,1.91,1.91,0,0,1,.84-2.13c-.17.1.75-.25.28-.13s.74-.07.35-.05-.45-.14.35.06c-.4-.1.26.11.32.14-.2-.12-.09,0,.34.27l.31.4a1.94,1.94,0,0,1,.26,1,.81.81,0,0,1,0-.16,2.51,2.51,0,0,0-.73-1.77,2.57,2.57,0,0,0-1.77-.73,2.53,2.53,0,0,0-1.77.73,2.93,2.93,0,0,0-.73,1.77Z" fill="#c2e3d3" transform="translate(-100 0)"/>
    
    <path class="blue-blob" d="M8.44,231.56c3.21,0,3.22-5,0-5s-3.23,5,0,5Z" fill="#c2e3d3" transform="translate(-100 0)"/>
    
    <path class="blue-blob" d="M250.11,124.79c5,2.31,10.06.91,15.33,1.37,3.21.28,3.19-4.72,0-5-4.14-.36-8.89,1.12-12.81-.69-2.9-1.34-5.44,3-2.52,4.32Z" fill="#c2e3d3" transform="translate(-100 0)"/>
    
    <path class="blue-blob" d="M268,122.29c-1.27-2.34-5.51-4.13-8-4.7-3.92-.91-7.22.69-10.66,2.37-2.24,1.1-4.83,3.36-2.12,5.73s8.3,0,11.45-.4,1.83-5.24-1.33-4.82c-1,.13-6.43,1.83-7,1.34l.74,1.76,0-.42L250,125.31c2.07-1.48,5.47-3.13,8-3,1.2.08,5.19,1.45,5.74,2.46,1.54,2.82,5.86.3,4.31-2.53Z" fill="#c2e3d3" transform="translate(-100 0)"/>
    
    <path class="blue-blob" d="M261.77,120.47a31.17,31.17,0,0,0-7.66.27c-2.32.34-2.17,3.5-.6,4.57a6.43,6.43,0,0,0,3.76,1.25c2.8.29,3.41-4.33.67-4.91-5.36-1.13-10.18-1.15-14.5,2.58-2,1.74.17,4.69,2.43,4.18,7.79-1.75,16.33-1.7,24.33-1.31,3.22.16,3.21-4.84,0-5-8.55-.41-17.32-.38-25.65,1.49l2.43,4.18c2.9-2.51,6.22-2,9.63-1.3l.66-4.91L256,121l-.6,4.57a24.86,24.86,0,0,1,6.33-.09c3.2.31,3.18-4.69,0-5Z" fill="#c2e3d3" transform="translate(-100 0)"/>
    
    <path class="blue-blob" d="M245.88,128.5c3.22,0,3.22-5,0-5s-3.22,5,0,5Z" fill="#c2e3d3" transform="translate(-100 0)"/>
    
    <path class="blue-blob" d="M246.79,128.16c3.21,0,3.22-5,0-5s-3.23,5,0,5Z" fill="#c2e3d3" transform="translate(-100 0)"/>
    
    <path class="blue-blob" d="M245.73,123.57a4.49,4.49,0,0,0-1.61.44,2.52,2.52,0,0,0-.89,3.42,2.56,2.56,0,0,0,3.42.9l-.92.24a2.72,2.72,0,0,0,1.77-.74,2.5,2.5,0,0,0,0-3.53,2.35,2.35,0,0,0-1.77-.73Z" fill="#c2e3d3" transform="translate(-100 0)"/>
    <!-- end of blue blob-->
    
    <!-- orange blob-->
    <path class="orange-blob" d="M1469,476.42c23.66,13.11,48.26,32.15,50.85,59.23,2.2,22.94-12.5,44.15-29.36,59.72s-36.75,28.14-50.54,46.51c-25.27,33.67-25.38,79.65-40.41,119-33.64,88.1-135.65,131.3-180.16,214.35l.41.93L1078,1039.05c-23.36,10.35-47,20.79-72.18,25.06s-52.41,1.77-73.82-12.23-35.3-41.1-29.18-66.06c6.66-27.23,33.35-44.2,59.09-54.85s54-18.63,73.19-38.92c5.24-5.53,9.81-12.33,10.09-20,.22-6.35-2.57-12.43-6-17.77-15.63-24.54-43.71-37.61-64.82-57.55-38.2-36.06-51-93-46.29-145.52,1.17-13.1,3.76-27.08,13.08-36.29,12.4-12.27,32.49-11.92,49.19-7.08,34.53,10,63.69,35.1,98.87,42.4,4.84,1,10.34,1.52,14.32-1.43s5.15-8.75,5.19-13.88c.18-22.23-12.51-42.41-26.45-59.62-27.25-33.67-61.2-62.13-83.2-99.48s-29.15-88.82-1.49-122.14c7.45-9,17.72-16.37,29.3-17.15,6.08-.41,12.14,1,17.88,3.09,33.55,12.1,55.28,44.4,72.47,75.86s33.42,65.42,62.53,86.15c5.32,3.79,11.14,7.11,17.53,8.41,18.25,3.7,35.61-9.82,46.79-24.83s19.59-32.7,34.58-43.84,40.1-11.81,49,4.66c9.5,17.55-5.66,38.16-6.92,58.1-.15,2.45,0,5.15,1.69,6.9,1.89,2,5,2,7.67,1.71,38.85-4.39,65.72-50.7,104.75-48.49C1447,465,1458.36,470.52,1469,476.42Z " fill="#ea7e3c" transform='translate(100 0)'/>
    
    <!-- Outline of orange blob-->
    <path class="orange-blob" d="M1223,974.83l-3.12,1.38L1078,1039.05c-23.36,10.35-47,20.79-72.18,25.06s-52.41,1.77-73.82-12.23-35.3-41.1-29.18-66.06c6.66-27.23,33.35-44.2,59.09-54.85s54-18.63,73.19-38.92c5.24-5.53,9.81-12.33,10.09-20,.22-6.35-2.57-12.43-6-17.77-15.63-24.54-43.71-37.61-64.82-57.55-38.2-36.06-51-93-46.29-145.52,1.17-13.1,3.76-27.08,13.08-36.29,12.4-12.27,32.49-11.92,49.19-7.08,34.53,10,63.69,35.1,98.87,42.4,4.84,1,10.34,1.52,14.32-1.43s5.15-8.75,5.19-13.88c.18-22.23-12.51-42.41-26.45-59.62-27.25-33.67-61.2-62.13-83.2-99.48s-29.15-88.82-1.49-122.14c7.45-9,17.72-16.37,29.3-17.15,6.08-.41,12.14,1,17.88,3.09,33.55,12.1,55.28,44.4,72.47,75.86s33.42,65.42,62.53,86.15c5.32,3.79,11.14,7.11,17.53,8.41,18.25,3.7,35.61-9.82,46.79-24.83s19.59-32.7,34.58-43.84,40.1-11.81,49,4.66c9.5,17.55-5.66,38.16-6.92,58.1-.15,2.45,0,5.15,1.69,6.9,1.89,2,5,2,7.67,1.71,38.85-4.39,65.72-50.7,104.75-48.49,12.17.68,23.49,6.22,34.17,12.12,23.66,13.11,48.26,32.15,50.85,59.23,2.2,22.94-12.5,44.15-29.36,59.72s-36.75,28.14-50.54,46.51c-25.27,33.67-25.38,79.65-40.41,119-33.64,88.1-135.65,131.3-180.16,214.35 " fill="none" transform='translate(100 0)' stroke="#ea7e3c" stroke-miterlimit="10"/>
    
    
    <!-- Dots inside the orange blob-->
    <path class="orange-blob dots" d="M1114.71,500.34c2.46-3.31,10.4-2.73,11.1,2.45.66,4.79-5,12.13-8.19,11.83-2.17-.2-2.93-4-3.35-6.06S1113.05,502.58,1114.71,500.34Z" fill="#606060" transform='translate(100 0)'/>
    
    <path class="orange-blob dots" d="M1190.72,665c2.46-3.31,10.4-2.74,11.1,2.45.66,4.78-5,12.12-8.19,11.83-2.17-.2-2.93-4-3.35-6.06S1189.06,667.2,1190.72,665Z" fill="#f8ac8e" transform='translate(100 0)'/>
    
    <path class="orange-blob dots" d="M1361.74,679.67c2.46-3.31,10.4-2.74,11.1,2.45.66,4.78-5,12.12-8.19,11.83-2.17-.2-2.93-4-3.35-6.06S1360.08,681.9,1361.74,679.67Z" fill="#606060" transform='translate(100 0)'/>
    
    <path class="orange-blob" d="M1229.91,591.05c2.45-3.3,10.39-2.73,11.1,2.45.65,4.79-5,12.13-8.2,11.84-2.16-.21-2.93-4-3.35-6.07S1228.25,593.29,1229.91,591.05Z" fill="#606060" transform='translate(100 0)'/>
    
    <path class="orange-blob dots" d="M1105,445.55c-3.13-2.68-2-10.55,3.21-10.9,4.82-.32,11.75,5.88,11.24,9-.35,2.15-4.19,2.65-6.28,2.93S1107.07,447.37,1105,445.55Z" fill="#606060" opacity="0.9" transform='translate(100 0)'/>
    
    <path class="orange-blob dots" d="M1337.66,571.46c2.46-3.31,10.4-2.73,11.1,2.45.66,4.79-5,12.12-8.19,11.83-2.17-.2-2.93-4-3.35-6.06S1336,573.7,1337.66,571.46Z" fill="#606060" transform='translate(100 0)' />
    
    <path class="orange-blob dots" d="M1003.71,657c2.46-3.3,10.39-2.73,11.1,2.45.65,4.79-5,12.13-8.2,11.84-2.16-.2-2.93-4-3.35-6.07S1002.05,659.19,1003.71,657Z" fill="#606060" opacity="0.9" transform='translate(100 0)'/>
    
    <path class="orange-blob dots" d="M1177.32,609.07c-3.7-1.78-4.64-9.68.31-11.36,4.58-1.54,12.87,2.67,13.17,5.81.22,2.17-3.36,3.64-5.31,4.44S1179.84,610.28,1177.32,609.07Z" fill="#f8ac8e" transform='translate(100 0)'/>
    
    <path class="orange-blob dots" d="M1306.5,606.19c2.45-3.3,10.39-2.73,11.09,2.45.66,4.79-5,12.13-8.19,11.83-2.16-.2-2.93-4-3.35-6.06S1304.83,608.43,1306.5,606.19Z" fill="#f8ac8e" transform='translate(100 0)'/>
    
    <path class="orange-blob dots" d="M1055.91,684.05c3.85,1.47,5.43,9.27.63,11.34-4.43,1.92-13-1.6-13.6-4.7-.39-2.14,3-3.9,4.93-4.86S1053.31,683.05,1055.91,684.05Z" fill="#f8ac8e" transform='translate(100 0)'/>
    
    <path class="orange-blob dots" d="M1290,517.81c-3.55-2.09-3.83-10,1.25-11.3,4.69-1.16,12.6,3.73,12.64,6.88,0,2.18-3.65,3.35-5.66,4S1292.43,519.22,1290,517.81Z" fill="#f8ac8e" transform='translate(100 0)'/>
    
    <path class="orange-blob dots" d="M1236.14,546.52c2.46-3.3,10.39-2.73,11.1,2.45.65,4.79-5,12.13-8.19,11.84-2.17-.2-2.94-4-3.36-6.06S1234.48,548.76,1236.14,546.52Z" fill="#f8ac8e" transform='translate(100 0)'/>
    
    <path class="orange-blob dots" d="M1053.58,392.46c2.46-3.31,10.39-2.73,11.1,2.45.65,4.79-5,12.12-8.2,11.83-2.16-.2-2.93-4-3.35-6.06S1051.92,394.7,1053.58,392.46Z" fill="#f8ac8e" opacity="0.9" transform='translate(100 0)'/>
    
    <path class="orange-blob dots" d="M1066.05,465.48c2.45-3.3,10.39-2.73,11.1,2.45.65,4.79-5.05,12.13-8.2,11.84-2.16-.2-2.93-4-3.35-6.06S1064.38,467.72,1066.05,465.48Z" fill="#f8ac8e" opacity="0.9" transform='translate(100 0)'/>
    
    <path class="orange-blob dots" d="M1118.31,681.55c-3.13-2.68-2-10.56,3.21-10.91,4.82-.32,11.75,5.88,11.24,9-.35,2.14-4.19,2.65-6.28,2.92S1120.42,683.36,1118.31,681.55Z" fill="#606060" transform='translate(100 0)'/>
    
    <path class="orange-blob dots" d="M1045.29,441.82c-3.66,1.88-10.53-2.15-8.87-7.11,1.54-4.58,9.9-8.63,12.6-7,1.85,1.14.86,4.88.32,6.92S1047.77,440.55,1045.29,441.82Z" fill="#606060" opacity="0.9" transform='translate(100 0)'/>
    
    <path class="orange-blob dots" d="M1250.39,657c2.46-3.3,10.39-2.73,11.1,2.45.65,4.79-5,12.13-8.2,11.84-2.16-.2-2.93-4-3.35-6.07S1248.73,659.19,1250.39,657Z" fill="#606060" transform='translate(100 0)'/>
    
    <path class="orange-blob dots" d="M1160.45,546.52c2.45-3.3,10.39-2.73,11.09,2.45.66,4.79-5,12.13-8.19,11.84-2.16-.2-2.93-4-3.35-6.06S1158.78,548.76,1160.45,546.52Z" fill="#606060" transform='translate(100 0)'/>
    
    <path class="orange-blob dots" d="M1015.39,742c2.46-3.3,10.39-2.73,11.1,2.45.65,4.79-5,12.13-8.2,11.84-2.16-.2-2.93-4-3.35-6.07S1013.73,744.19,1015.39,742Z" fill="#606060" opacity="0.9" transform='translate(100 0)'/>
    
    <path class="orange-blob dots" d="M1136.51,747.42c1.52,3.82-3.13,10.27-7.91,8.15-4.42-2-7.67-10.66-5.77-13.19,1.31-1.73,4.94-.39,6.92.33S1135.48,744.82,1136.51,747.42Z" fill="#606060" transform='translate(100 0)'/>
    
    <path class="orange-blob dots" d="M1258.62,725.65c-4.1.28-8.83-6.11-5.36-10,3.21-3.62,12.49-4.06,14.32-1.49,1.25,1.78-1.12,4.83-2.42,6.49S1261.41,725.45,1258.62,725.65Z" fill="#606060" transform='translate(100 0)'/>
    
    <path class="orange-blob dots" d="M1196.43,729.38c2.57,3.22,0,10.75-5.19,10.11-4.8-.58-10.45-8-9.36-10.94.74-2,4.6-1.81,6.71-1.69S1194.69,727.21,1196.43,729.38Z" fill="#f8ac8e" transform='translate(100 0)'/>
    
    <path class="orange-blob dots" d="M1319.92,652.45c4.08.55,7.41,7.78,3.22,10.9-3.88,2.88-13.06,1.44-14.33-1.46-.87-2,2.08-4.49,3.69-5.86S1317.16,652.07,1319.92,652.45Z" fill="#f8ac8e" transform='translate(100 0)'/>
    
    <path class="orange-blob dots" d="M1306.72,720c2.46-3.31,10.4-2.74,11.1,2.45.66,4.78-5,12.12-8.19,11.83-2.17-.2-2.93-4-3.35-6.06S1305.06,722.2,1306.72,720Z" fill="#f8ac8e" transform='translate(100 0)'/>
    
    <path class="orange-blob dots" d="M1166,517.81c-3.55-2.09-3.83-10,1.25-11.3,4.69-1.16,12.6,3.73,12.64,6.88,0,2.18-3.65,3.35-5.66,4S1168.43,519.22,1166,517.81Z" fill="#f8ac8e" transform='translate(100 0)'/>
</svg>