<svg width="1366" height="768" xmlns="http://www.w3.org/2000/svg" xmlns:svg="http://www.w3.org/2000/svg">
 <defs>
  <style>.cls-1{fill:#f8ac8e;}.cls-2{fill:#43616d;}.cls-3{fill:none;stroke:#f3d757;stroke-linecap:round;stroke-miterlimit:10;stroke-width:12px;}</style>
 </defs>
 <title>Artboard 1</title>
 <g>
  <title>Layer 1</title>
  <path id="svg_1" d="m639.23999,166.37c1.27002,-4.53999 12.77002,-7.84999 17.18994,-3c4.07007,4.52 0.91003,14.73 -3.68994,16c-3.17004,0.86 -6.75,-2.59001 -8.69995,-4.48s-5.65002,-5.44 -4.80005,-8.52z" class="cls-1"/>
  <path id="svg_2" d="m632.67004,195.38c1.27002,-4.54001 12.77002,-7.85001 17.18005,-3c4.07996,4.51999 0.91992,14.73 -3.69006,16c-3.16003,0.86 -6.73999,-2.60001 -8.68994,-4.48999s-5.66003,-5.43001 -4.80005,-8.51001z" class="cls-2"/>
  <path id="svg_3" d="m636,236.31c-2.16003,-4.19 4,-14.42999 10.58997,-13.84c6.06006,0.53999 10.68005,10.17999 8.15002,14.23c-1.73999,2.78 -6.70996,2.67 -9.42993,2.62001c-2.56006,-0.06001 -7.88,-0.17001 -9.31006,-3.01001z" class="cls-2"/>
  <path id="svg_4" d="m686.15002,123.88c-1,4.61001 -12.27002,8.61001 -17,4c-4.34998,-4.25999 -1.81006,-14.64999 2.70996,-16.17c3.09998,-1 6.89001,2.18 8.95007,3.94s6,5.11 5.33997,8.23z" class="cls-2"/>
  <path id="svg_5" d="m642.23999,32.37c1.27002,-4.54 12.77002,-7.85 17.18994,-3c4.07007,4.52 0.91003,14.73 -3.68994,16c-3.17004,0.86 -6.75,-2.59 -8.69995,-4.48s-5.65002,-5.44 -4.80005,-8.52z" class="cls-1"/>
  <path id="svg_6" d="m664.84998,80.32c2.85999,-3.75 14.77002,-2.57 17.06006,3.61c2.10999,5.7 -4.61011,14 -9.3501,13.47c-3.25,-0.37 -5.29993,-4.91 -6.41992,-7.38c-1.04004,-2.32 -3.21997,-7.16 -1.29004,-9.7z" class="cls-2"/>
  <path id="svg_7" d="m645.70996,123.79c4.08997,-2.35 14.62,3.34 14.33997,9.92001c-0.26001,6.07999 -9.66992,11.14999 -13.82996,8.81999c-2.85999,-1.61 -3,-6.58 -3.06006,-9.28999c-0.06995,-2.54001 -0.15991,-7.86001 2.55005,-9.45z" class="cls-1"/>
  <path id="svg_8" d="m635.67004,61.38c1.27002,-4.54 12.77002,-7.85 17.18005,-3c4.07996,4.52 0.91992,14.73 -3.69006,16c-3.16003,0.86 -6.73999,-2.6 -8.68994,-4.49s-5.66003,-5.43 -4.80005,-8.51z" class="cls-2"/>
  <path id="svg_9" d="m639,102.31c-2.16003,-4.18999 4,-14.43 10.58997,-13.84c6.06006,0.54 10.68005,10.18 8.15002,14.23c-1.73999,2.78001 -6.70996,2.67001 -9.42993,2.62c-2.56006,-0.06 -7.88,-0.17 -9.31006,-3.01z" class="cls-2"/>
  <path fill="black" id="svg_10" d="m689.41003,41.68c15.07996,38.78 26.19995,88.85999 6.28003,134.67999c-14.15002,32.54001 -34.45007,41.07001 -49.52002,73.78c-13.27002,28.80002 -20.73999,72.56 1.83997,139.42999" class="cls-3"/>
  <path id="svg_11" d="m647.28003,744.57001c-19.44995,-37.45001 -36.28003,-86.76001 -21.77002,-135.25c10.30005,-34.44 29.48999,-45.33002 40.69006,-80.04999c9.85999,-30.57001 12.23999,-75.58002 -17.92004,-140.54001" class="cls-3"/>
  <path id="svg_12" d="m704.65002,272.28c-0.81006,4.64001 -11.93005,9.09 -16.80005,4.66c-4.51001,-4.09 -2.38989,-14.56 2.07007,-16.26001c3.05994,-1.16998 7,1.91 9.09998,3.59s6.16992,4.86002 5.63,8.01001z" class="cls-1"/>
  <path id="svg_13" d="m674.5,288.42001c-2.46997,4 -14.43994,4 -17.32996,-1.89001c-2.67004,-5.45999 3.17993,-14.41 7.94995,-14.34c3.28003,0.05002 5.77002,4.36002 7.13,6.71002s3.92004,6.79999 2.25,9.51999z" class="cls-2"/>
  <path id="svg_14" d="m708.29004,242.75c-0.81006,4.64999 -11.93005,9.09 -16.80005,4.67c-4.51001,-4.09 -2.38989,-14.56999 2.07007,-16.27c3.05994,-1.17 7,1.91 9.09998,3.59001s6.16992,4.86 5.63,8.00999z" class="cls-2"/>
  <path id="svg_15" d="m662.22998,319.23999c0.52002,-4.67999 11.33997,-9.79999 16.47998,-5.67999c4.75,3.81 3.27002,14.39999 -1.07996,16.37c-3,1.35001 -7.07007,-1.48999 -9.30005,-3s-6.45996,-4.50998 -6.09998,-7.69z" class="cls-2"/>
  <path id="svg_16" d="m715.06006,405.89999c-0.81006,4.64999 -11.93005,9.09 -16.80005,4.66998c-4.51001,-4.09 -2.38989,-14.56 2.07007,-16.26999c3.05994,-1.16 7,1.92001 9.09998,3.60001s6.16992,4.86002 5.63,8z" class="cls-1"/>
  <path id="svg_17" d="m687.77002,360.45999c-2.46997,4 -14.43994,4 -17.32996,-1.89001c-2.67004,-5.47 3.17993,-14.40997 8,-14.34c3.27991,0 5.7699,4.36002 7.12,6.71002c1.21997,2.19 3.87988,6.79999 2.20996,9.51999z" class="cls-2"/>
  <path id="svg_18" d="m702.46997,315.29001c-3.82996,2.75 -14.88,-1.87 -15.26001,-8.44c-0.34998,-6.07999 8.51001,-12.06 12.88,-10.16c3,1.32001 3.63,6.25 4,8.94c0.30005,2.51999 0.97009,7.79999 -1.62,9.66z" class="cls-1"/>
  <path id="svg_19" d="m718.68994,376.38c-0.80005,4.63998 -11.92004,9.09 -16.79004,4.66c-4.51001,-4.08002 -2.39001,-14.56 2.07007,-16.26001c3.05994,-1.17001 7,1.91 9.09998,3.59s6.17004,4.86002 5.62,8.01001z" class="cls-2"/>
  <path id="svg_20" d="m711.31995,336c2.56995,4 -2.56995,14.76999 -9.15002,14.84c-6.08997,0.06 -11.65002,-9.07001 -9.53003,-13.34c1.45007,-2.94 6.41003,-3.34 9.12012,-3.54999c2.52002,-0.22 7.82996,-0.65002 9.55994,2.04999z" class="cls-2"/>
  <path id="svg_21" d="m614.23999,523.37c1.27002,-4.53998 12.77002,-7.84998 17.18994,-3c4.07007,4.52002 0.91003,14.72998 -3.68994,16c-3.17004,0.85999 -6.75,-2.59003 -8.69995,-4.47998s-5.65002,-5.44 -4.80005,-8.52002z" class="cls-1"/>
  <path id="svg_22" d="m645.84998,510.32001c2.85999,-3.75 14.77002,-2.57001 17.06006,3.61005c2.10999,5.69995 -4.61011,13.99994 -9.3501,13.46997c-3.25,-0.37 -5.29993,-4.91003 -6.41992,-7.38c-1.04004,-2.32001 -3.21997,-7.16003 -1.29004,-9.70001z" class="cls-2"/>
  <path id="svg_23" d="m607.67004,552.38c1.27002,-4.53998 12.77002,-7.84998 17.18005,-3c4.07996,4.52002 0.91992,14.72998 -3.69006,16c-3.16003,0.85999 -6.73999,-2.59998 -8.68994,-4.48999s-5.66003,-5.42999 -4.80005,-8.51001z" class="cls-2"/>
  <path id="svg_24" d="m661.15002,480.88c-1,4.61002 -12.27002,8.60999 -17,4c-4.34998,-4.26001 -1.81006,-14.64999 2.70996,-16.17001c3.09998,-1 6.89001,2.18002 8.95007,3.94s6,5.11002 5.33997,8.23001z" class="cls-2"/>
  <path id="svg_25" d="m617.23999,389.37c1.27002,-4.54001 12.77002,-7.85001 17.18994,-3c4.07007,4.52002 0.91003,14.72998 -3.68994,16c-3.17004,0.86002 -6.75,-2.59 -8.69995,-4.47998s-5.65002,-5.44 -4.80005,-8.52002z" class="cls-1"/>
  <path id="svg_26" d="m639.84998,437.32001c2.85999,-3.75 14.77002,-2.57001 17.06006,3.61002c2.10999,5.69998 -4.61011,14 -9.3501,13.47c-3.25,-0.37003 -5.29993,-4.91 -6.41992,-7.38c-1.04004,-2.32001 -3.21997,-7.16003 -1.29004,-9.70001z" class="cls-2"/>
  <path id="svg_27" d="m620.70996,480.79001c4.08997,-2.35001 14.62,3.34 14.33997,9.92001c-0.26001,6.07999 -9.66992,11.14999 -13.82996,8.81998c-2.85999,-1.60999 -3,-6.57999 -3.06006,-9.28998c-0.06995,-2.54001 -0.15991,-7.86002 2.55005,-9.45001z" class="cls-1"/>
  <path id="svg_28" d="m610.67004,418.38c1.27002,-4.54001 12.77002,-7.85001 17.18005,-3c4.07996,4.51999 0.91992,14.72998 -3.69006,16c-3.16003,0.85999 -6.73999,-2.60001 -8.68994,-4.48999s-5.66003,-5.43002 -4.80005,-8.51001z" class="cls-2"/>
  <path id="svg_29" d="m614,459.31c-2.16003,-4.19 4,-14.42999 10.58997,-13.84c6.06006,0.54001 10.68005,10.17999 8.15002,14.23001c-1.73999,2.78 -6.70996,2.66998 -9.42993,2.62c-2.56006,-0.06 -7.88,-0.17001 -9.31006,-3.01001z" class="cls-2"/>
  <path id="svg_30" d="m696.67004,599.17999c-1.27002,4.53998 -12.78003,7.83002 -17.19006,2.94c-4.06995,-4.53003 -0.88989,-14.72998 3.71008,-16c3.16992,-0.85999 6.73999,2.59998 8.69995,4.48999s5.64001,5.48999 4.78003,8.57001z" class="cls-1"/>
  <path id="svg_31" d="m665.05005,612.19c-2.87,3.75 -14.78003,2.54999 -17.06006,-3.63c-2.09998,-5.71002 4.63,-14 9.37012,-13.46002c3.25,0.38 5.28992,4.91003 6.40991,7.39001c1.03003,2.31 3.22998,7.16003 1.28003,9.70001z" class="cls-2"/>
  <path id="svg_32" d="m703.28003,570.16998c-1.27002,4.53998 -12.78003,7.84003 -17.18994,2.94c-4.07007,-4.52002 -0.90002,-14.72998 3.70996,-16c3.16992,-0.84998 6.73999,2.59998 8.68994,4.48999s5.65002,5.49005 4.79004,8.57001z" class="cls-2"/>
  <path id="svg_33" d="m649.71997,641.60999c1,-4.60999 12.28003,-8.59998 17,-4c4.33997,4.27002 1.79004,14.65002 -2.72998,16.16998c-3.10999,1 -6.89001,-2.19 -9,-4s-5.93994,-5.04999 -5.27002,-8.16998z" class="cls-2"/>
  <path id="svg_34" d="m693.51001,733.16998c-1.27002,4.53998 -12.78003,7.84003 -17.18994,2.94c-4.06006,-4.52002 -0.89001,-14.72998 3.70996,-16c3.16992,-0.84998 6.73999,2.60999 8.69995,4.5s5.64001,5.48999 4.78003,8.56z" class="cls-1"/>
  <path id="svg_35" d="m671,685.20001c-2.85999,3.75 -14.77002,2.53998 -17,-3.63c-2.10999,-5.71002 4.62,-14 9.35999,-13.46997c3.26001,0.37994 5.30005,4.91998 6.41003,7.39996c0.94995,2.31 3.13,7.15997 1.22998,9.70001z" class="cls-2"/>
  <path id="svg_36" d="m690.15002,641.75c-4.08997,2.34998 -14.60999,-3.35999 -14.31995,-9.94c0.25989,-6.08002 9.67993,-11.14001 13.82996,-8.79999c2.85999,1.60999 3,6.58002 3.05994,9.28998c0.06006,2.54004 0.20007,7.85999 -2.56995,9.45001z" class="cls-1"/>
  <path id="svg_37" d="m700.12,704.16998c-1.27002,4.53998 -12.78003,7.83002 -17.19006,2.94c-4.06995,-4.53003 -0.8999,-14.72998 3.71008,-16c3.16992,-0.85999 6.73999,2.59998 8.68994,4.48999s5.67004,5.49005 4.79004,8.57001z" class="cls-2"/>
  <path id="svg_38" d="m696.87,663.22998c2.15002,4.20001 -4.05994,14.42999 -10.60999,13.84003c-6.06006,-0.56 -10.67004,-10.20001 -8.13,-14.24005c1.73999,-2.77997 6.70996,-2.66998 9.43005,-2.60999c2.52991,0.05005 7.84998,0.17004 9.30994,3.01001z" class="cls-2"/>
 </g>
</svg>