<svg id="Layer_1" data-name="Layer 1" xmlns="http://www.w3.org/2000/svg" xmlns:xlink="http://www.w3.org/1999/xlink" viewBox="0 0 1366 1000"><defs><style>.cls-1{fill:none;}.cls-2{clip-path:url(#clip-path);}.cls-3{font-size:108.24px;}.cls-29,.cls-3,.cls-4{fill:#ea7e3c;}.cls-3,.cls-4,.cls-8{font-family:Nobel-Bold, Nobel;font-weight:700;}.cls-4{font-size:28.19px;}.cls-5{letter-spacing:-0.02em;}.cls-6{letter-spacing:-0.02em;}.cls-7{letter-spacing:-0.01em;}.cls-8{font-size:14.66px;fill:#43616d;}.cls-9{letter-spacing:-0.05em;}.cls-10{letter-spacing:-0.06em;}.cls-11{letter-spacing:-0.05em;}.cls-12{letter-spacing:-0.03em;}.cls-13{letter-spacing:-0.01em;}.cls-14{letter-spacing:-0.06em;}.cls-15{letter-spacing:0.02em;}.cls-16{letter-spacing:-0.08em;}.cls-17{letter-spacing:2.54em;}.cls-18{letter-spacing:-0.08em;}.cls-19{letter-spacing:-0.02em;}.cls-20{letter-spacing:-0.01em;}.cls-21{letter-spacing:-0.01em;}.cls-22{letter-spacing:0em;}.cls-23{letter-spacing:0em;}.cls-24{letter-spacing:-0.06em;}.cls-25{letter-spacing:0em;}.cls-26{letter-spacing:-0.1em;}.cls-27{letter-spacing:0em;}.cls-28{fill:#f8ac8e;}.cls-30{fill:#c2e3d3;}.cls-31{fill:#f3d757;}.cls-32{fill:#fff;}</style><clipPath id="clip-path"><rect class="cls-1" width="1370" height="999"/></clipPath></defs><title>Artboard 1</title><g class="cls-2"><path class="cls-1" d="M328.31,172.48a218.83,218.83,0,0,0,119.5-195c0-120.87-98-218.84-218.84-218.84A218.89,218.89,0,0,0,27.16-107.33H328.31Z"/><path class="cls-29" d="M257.26,273a195.36,195.36,0,0,0,89.09-21.35V.73H76.29A195.65,195.65,0,0,0,61,76.74C61,185.12,148.88,273,257.26,273Z"/><path class="cls-30" d="M4,77.13A259,259,0,0,1,15.27,1.23H-353V764H346V318a251.14,251.14,0,0,1-88,15.84C117.7,333.79,4,218.88,4,77.13Z"/><path class="cls-31" d="M257.26,273C148.88,273,61,185.12,61,76.74A195.65,195.65,0,0,1,76.29.73H11.64a256.83,256.83,0,0,0-11.43,76c0,142,115.09,257.06,257.05,257.06a256.46,256.46,0,0,0,89.09-15.87V251.64A195.36,195.36,0,0,1,257.26,273Z"/><rect class="cls-30" x="-353" y="764" width="698" height="279"/><path class="cls-31" d="M-3.23,738.47c46.1.81,84.22-40.7,85.14-92.73S46.2,550.89.09,550.07H-.67L-4,738.44Z"/><path class="cls-29" d="M-3,703.32c29.62.18,54-26.62,54.53-60.11S28.61,582.15-1,581.37Z"/><path class="cls-29" d="M117.59,978.55a195.27,195.27,0,0,0,36.5,84L401.18,1019,354.25,753a195.68,195.68,0,0,0-77.51-1.82C170,770,98.75,871.82,117.59,978.55Z"/><path class="cls-31" d="M202.93,1036.36C151.37,978,155.5,889.69,212.42,838.48s145.2-46,197.78,11.42Z"/><rect class="cls-31" x="221" y="863" width="211" height="202"/><rect class="cls-32" x="347" y="708" width="131" height="357"/><rect class="cls-32" x="348" y="-70" width="131" height="357"/></g></svg>