<svg id="Layer_1" data-name="Layer 1" xmlns="http://www.w3.org/2000/svg" xmlns:xlink="http://www.w3.org/1999/xlink" viewBox="0 0 1366 1000"><defs><style>.cls-1{fill:none;}.cls-2{clip-path:url(#clip-path);}.cls-3{font-size:108.24px;}.cls-29,.cls-3,.cls-4{fill:#ea7e3c;}.cls-3,.cls-4,.cls-8{font-family:Nobel-Bold, Nobel;font-weight:700;}.cls-4{font-size:28.19px;}.cls-5{letter-spacing:-0.02em;}.cls-6{letter-spacing:-0.02em;}.cls-7{letter-spacing:-0.01em;}.cls-8{font-size:14.66px;fill:#43616d;}.cls-9{letter-spacing:-0.05em;}.cls-10{letter-spacing:-0.06em;}.cls-11{letter-spacing:-0.05em;}.cls-12{letter-spacing:-0.03em;}.cls-13{letter-spacing:-0.01em;}.cls-14{letter-spacing:-0.06em;}.cls-15{letter-spacing:0.02em;}.cls-16{letter-spacing:-0.08em;}.cls-17{letter-spacing:2.54em;}.cls-18{letter-spacing:-0.08em;}.cls-19{letter-spacing:-0.02em;}.cls-20{letter-spacing:-0.01em;}.cls-21{letter-spacing:-0.01em;}.cls-22{letter-spacing:0em;}.cls-23{letter-spacing:0em;}.cls-24{letter-spacing:-0.06em;}.cls-25{letter-spacing:0em;}.cls-26{letter-spacing:-0.1em;}.cls-27{letter-spacing:0em;}.cls-28{fill:#f8ac8e;}.cls-30{fill:#c2e3d3;}.cls-31{fill:#f3d757;}.cls-32{fill:#fff;}</style><clipPath id="clip-path"><rect class="cls-1" width="1370" height="999"/></clipPath></defs><title>Artboard 1</title><g class="cls-2"><text class="cls-3" transform="translate(641.8 104.06)">schedule</text><text class="cls-4" transform="translate(520.53 174.35)"><tspan class="cls-5">F</tspan><tspan x="14.07" y="0">rid</tspan><tspan class="cls-6" x="49.05" y="0">a</tspan><tspan x="63.54" y="0">y</tspan></text><text class="cls-4" transform="translate(520.53 448.93)">Satu<tspan class="cls-7" x="56.52" y="0">r</tspan><tspan x="68.1" y="0">d</tspan><tspan class="cls-6" x="83.94" y="0">a</tspan><tspan x="98.43" y="0">y</tspan></text><text class="cls-8" transform="translate(682.87 188.7)">5:30 am</text><text class="cls-8" transform="translate(682.87 219.14)">6:30 pm</text><text class="cls-8" transform="translate(682.87 250.72)"><tspan class="cls-9">7</tspan><tspan x="7.89" y="0">:00 pm</tspan></text><text class="cls-8" transform="translate(682.87 280.03)">8:00pm - 11:00 pm</text><text class="cls-8" transform="translate(682.87 493.14)">10:00 am <tspan class="cls-10" x="63.97" y="0">-</tspan><tspan x="68.64" y="0">12:00 pm</tspan></text><text class="cls-8" transform="translate(682.87 523.58)">12:00 pm <tspan class="cls-10" x="63.53" y="0">-</tspan><tspan x="68.2" y="0">1 :00 pm</tspan></text><text class="cls-8" transform="translate(682.87 623.93)">1:00 pm- 3:00 am</text><text class="cls-8" transform="translate(682.87 652.12)">3:00 pm - 4:00 am</text><text class="cls-8" transform="translate(682.87 776.15)">4:00 pm - 6:00 am</text><text class="cls-8" transform="translate(682.87 828.02)">6:00 pm- <tspan class="cls-11" x="63.53" y="0">7</tspan><tspan x="71.41" y="0">:00 pm</tspan></text><text class="cls-8" transform="translate(682.87 893.42)"><tspan class="cls-9">7</tspan><tspan x="7.89" y="0">:00 pm- 8:00 pm</tspan></text><text class="cls-8" transform="translate(682.87 923.86)">8:30 pm- 9:30 pm</text><text class="cls-8" transform="translate(682.87 954.3)">10:00 pm- 10:30 pm</text><text class="cls-8" transform="translate(903.93 187.23)">Chec<tspan class="cls-12" x="32.61" y="0">k</tspan><tspan x="40.07" y="0">-in</tspan></text><text class="cls-8" transform="translate(903.93 217.67)">Opening Ce<tspan class="cls-13" x="76.84" y="0">r</tspan><tspan x="82.86" y="0">emonies</tspan></text><text class="cls-8" transform="translate(903.52 249.25)"><tspan xml:space="preserve">Dinner  &amp; </tspan><tspan class="cls-14" x="63.64" y="0">P</tspan><tspan x="71.74" y="0">e</tspan><tspan class="cls-15" x="79.12" y="0">r</tspan><tspan x="85.59" y="0">formances</tspan></text><text class="cls-8" transform="translate(903.93 280.82)">Demo Series</text><text class="cls-8" transform="translate(903.93 321.35)"><tspan class="cls-16">W</tspan><tspan x="12.77" y="0">orkshops:</tspan><tspan class="cls-17" x="0" y="17.59">	</tspan><tspan x="40.59" y="17.59">OpenIDEO: Ideation </tspan><tspan class="cls-18" x="174.34" y="17.59">W</tspan><tspan x="187.11" y="17.59">orkshop</tspan><tspan class="cls-17" x="0" y="35.18">	</tspan><tspan x="40.59" y="35.18">Design Bloc: </tspan><tspan class="cls-12" x="122.41" y="35.18">R</tspan><tspan x="131.41" y="35.18">esea</tspan><tspan class="cls-13" x="160.01" y="35.18">r</tspan><tspan x="166.03" y="35.18">ch and Empat</tspan><tspan class="cls-19" x="252.42" y="35.18">h</tspan><tspan x="260.03" y="35.18">y</tspan><tspan class="cls-17" x="0" y="52.77">	</tspan><tspan x="40.59" y="52.77">Igenous: Sound Design</tspan></text><text class="cls-8" transform="translate(904.23 301)"><tspan class="cls-11">P</tspan><tspan x="8.17" y="0">a</tspan><tspan class="cls-20" x="15.92" y="0">s</tspan><tspan x="21.86" y="0">s the </tspan><tspan class="cls-20" x="54.85" y="0">A</tspan><tspan x="65.13" y="0">ux </tspan></text><text class="cls-8" transform="translate(903.78 493.92)">B<tspan class="cls-21" x="9.67" y="0">r</tspan><tspan class="cls-22" x="15.7" y="0">eakfast</tspan></text><text class="cls-8" transform="translate(902.65 524.31)"><tspan class="cls-16">W</tspan><tspan x="12.77" y="0">orkshops:</tspan><tspan class="cls-17" x="0" y="17.59">	</tspan><tspan x="40.59" y="17.59" xml:space="preserve">  Ph</tspan><tspan class="cls-23" x="64.01" y="17.59">o</tspan><tspan x="71.61" y="17.59">toshop</tspan><tspan class="cls-17" x="0" y="35.18">	</tspan><tspan x="40.59" y="35.18" xml:space="preserve">  Unity</tspan><tspan class="cls-17" x="0" y="52.77">	</tspan><tspan x="40.59" y="52.77" xml:space="preserve">  Laser Cutting</tspan><tspan class="cls-17" x="0" y="70.36">	</tspan><tspan x="40.59" y="70.36" xml:space="preserve">  S</tspan><tspan class="cls-12" x="55.88" y="70.36">e</tspan><tspan x="62.75" y="70.36">wing </tspan></text><text class="cls-8" transform="translate(902.65 624.72)">Lunch &amp; <tspan class="cls-24" x="54.95" y="0">P</tspan><tspan x="63.04" y="0">e</tspan><tspan class="cls-15" x="70.43" y="0">r</tspan><tspan x="76.89" y="0">formance</tspan></text><text class="cls-8" transform="translate(902.65 656.23)"><tspan class="cls-16">W</tspan><tspan x="12.77" y="0">orkshops:</tspan><tspan class="cls-17" x="0" y="17.59">	</tspan><tspan x="40.59" y="17.59" xml:space="preserve">  Illust</tspan><tspan class="cls-19" x="78.22" y="17.59">r</tspan><tspan x="84.14" y="17.59">ator </tspan></text><text class="cls-8" transform="translate(903.78 691.19)">Mini <tspan class="cls-13" x="31.57" y="0">E</tspan><tspan class="cls-19" x="39.77" y="0">v</tspan><tspan x="46.95" y="0">ent:</tspan><tspan class="cls-17" x="0" y="17.59">	</tspan><tspan x="40.59" y="17.59" xml:space="preserve"> Bob </tspan><tspan class="cls-12" x="72.65" y="17.59">R</tspan><tspan x="81.65" y="17.59">o</tspan><tspan class="cls-20" x="89.2" y="17.59">s</tspan><tspan x="95.13" y="17.59">s </tspan></text><text class="cls-8" transform="translate(902.65 730.71)"><tspan class="cls-20">A</tspan><tspan class="cls-25" x="10.28" y="0">f</tspan><tspan x="14.8" y="0">ternoon Snack</tspan></text><text class="cls-8" transform="translate(902.65 831.06)">Dinner &amp; <tspan class="cls-14" x="60.35" y="0">P</tspan><tspan x="68.44" y="0">e</tspan><tspan class="cls-15" x="75.83" y="0">r</tspan><tspan x="82.29" y="0">formance</tspan></text><text class="cls-8" transform="translate(902.65 851.99)">D<tspan class="cls-12" x="10.5" y="0">e</tspan><tspan x="17.37" y="0">vpost Submi</tspan><tspan class="cls-20" x="95.42" y="0">s</tspan><tspan x="101.36" y="0">sions Due</tspan></text><text class="cls-8" transform="translate(902.65 776.88)">Mini <tspan class="cls-13" x="31.57" y="0">E</tspan><tspan class="cls-19" x="39.77" y="0">v</tspan><tspan x="46.95" y="0">ent:</tspan><tspan class="cls-17" x="0" y="17.59">	</tspan><tspan x="40.59" y="17.59" xml:space="preserve"> Smash </tspan><tspan class="cls-26" x="89.42" y="17.59">T</tspan><tspan x="95.46" y="17.59">ourn</tspan><tspan class="cls-19" x="125.02" y="17.59">e</tspan><tspan x="132.12" y="17.59">y </tspan></text><text class="cls-8" transform="translate(902.65 894.2)">Final Making Hour</text><text class="cls-8" transform="translate(902.65 926.9)">Sh<tspan class="cls-19" x="16.59" y="0">ow</tspan><tspan class="cls-27" x="34.7" y="0">case</tspan></text><text class="cls-8" transform="translate(902.65 957.34)">Closing Ce<tspan class="cls-13" x="69.02" y="0">r</tspan><tspan x="75.05" y="0">emonies</tspan></text><path class="cls-28" d="M893.32,179.11c1.39-1.87,5.89-1.55,6.29,1.39.37,2.71-2.86,6.87-4.64,6.71-1.23-.11-1.67-2.26-1.9-3.44S892.38,180.38,893.32,179.11Z"/><path class="cls-28" d="M899.62,212.58c.9,2.15-1.67,5.86-4.4,4.71-2.53-1.07-4.46-6-3.41-7.42.72-1,2.8-.28,3.93.12S899,211.12,899.62,212.58Z"/><path class="cls-28" d="M897.74,241c2.27.54,3.75,4.8,1.22,6.33-2.35,1.42-7.45.1-8-1.61-.39-1.17,1.41-2.42,2.4-3.1S896.2,240.66,897.74,241Z"/><path class="cls-28" d="M896.54,279.58c-.75,2.21-5.13,3.28-6.41.61-1.19-2.47.62-7.42,2.37-7.81,1.2-.27,2.27,1.64,2.86,2.69S897.05,278.08,896.54,279.58Z"/><path class="cls-28" d="M893.55,494.18c-2.31.31-5.21-3.15-3.38-5.48,1.69-2.15,6.92-2.73,8.05-1.34.77,1-.47,2.77-1.15,3.76S895.12,494,893.55,494.18Z"/><path class="cls-28" d="M898.2,519.59c1.32,1.92-.44,6.07-3.35,5.5-2.69-.53-5.58-4.93-4.84-6.57.5-1.12,2.68-.83,3.86-.68S897.31,518.29,898.2,519.59Z"/><path class="cls-28" d="M889.24,620.39c-.39-2.3,3-5.32,5.36-3.57,2.21,1.61,3,6.83,1.61,8-.93.8-2.78-.37-3.79-1S889.5,622,889.24,620.39Z"/><path class="cls-28" d="M897.15,652.87c-1.69,1.61-6.07.52-6-2.44.09-2.73,4-6.28,5.72-5.82,1.18.32,1.25,2.52,1.28,3.71S898.29,651.78,897.15,652.87Z"/><path class="cls-28" d="M890.25,769.4c1-2.13,5.41-2.8,6.44,0,1,2.57-1.29,7.33-3.07,7.56-1.22.16-2.11-1.85-2.6-2.94S889.61,770.84,890.25,769.4Z"/><path class="cls-28" d="M894.93,829.08c-1,2.09-5.5,2.6-6.44-.21-.86-2.6,1.55-7.28,3.34-7.45,1.22-.11,2,1.92,2.5,3S895.63,827.66,894.93,829.08Z"/><path class="cls-28" d="M889.5,893.6c-2.18-.84-3.06-5.26-.34-6.43,2.51-1.08,7.39.93,7.7,2.69.22,1.21-1.73,2.2-2.8,2.74S891,894.17,889.5,893.6Z"/><path class="cls-28" d="M887.33,918.93c1.27-1.95,5.78-1.92,6.36,1,.55,2.68-2.42,7-4.2,7-1.24,0-1.81-2.15-2.12-3.31S886.47,920.26,887.33,918.93Z"/><path class="cls-28" d="M888.26,953.53c0-2.33,3.75-4.79,5.85-2.69,1.93,1.94,1.87,7.2.35,8.15-1.05.65-2.69-.8-3.59-1.59S888.27,955.11,888.26,953.53Z"/><path class="cls-1" d="M328.31,172.48a218.83,218.83,0,0,0,119.5-195c0-120.87-98-218.84-218.84-218.84A218.89,218.89,0,0,0,27.16-107.33H328.31Z"/><path class="cls-29" d="M257.26,273a195.36,195.36,0,0,0,89.09-21.35V.73H76.29A195.65,195.65,0,0,0,61,76.74C61,185.12,148.88,273,257.26,273Z"/><path class="cls-30" d="M4,77.13A259,259,0,0,1,15.27,1.23H-353V764H346V318a251.14,251.14,0,0,1-88,15.84C117.7,333.79,4,218.88,4,77.13Z"/><path class="cls-31" d="M257.26,273C148.88,273,61,185.12,61,76.74A195.65,195.65,0,0,1,76.29.73H11.64a256.83,256.83,0,0,0-11.43,76c0,142,115.09,257.06,257.05,257.06a256.46,256.46,0,0,0,89.09-15.87V251.64A195.36,195.36,0,0,1,257.26,273Z"/><rect class="cls-30" x="-353" y="764" width="698" height="279"/><path class="cls-31" d="M-3.23,738.47c46.1.81,84.22-40.7,85.14-92.73S46.2,550.89.09,550.07H-.67L-4,738.44Z"/><path class="cls-29" d="M-3,703.32c29.62.18,54-26.62,54.53-60.11S28.61,582.15-1,581.37Z"/><path class="cls-29" d="M117.59,978.55a195.27,195.27,0,0,0,36.5,84L401.18,1019,354.25,753a195.68,195.68,0,0,0-77.51-1.82C170,770,98.75,871.82,117.59,978.55Z"/><path class="cls-31" d="M202.93,1036.36C151.37,978,155.5,889.69,212.42,838.48s145.2-46,197.78,11.42Z"/><rect class="cls-31" x="221" y="863" width="211" height="202"/><rect class="cls-32" x="347" y="708" width="131" height="357"/><rect class="cls-32" x="348" y="-70" width="131" height="357"/></g></svg>