<svg id="Layer_1" data-name="Layer 1" xmlns="http://www.w3.org/2000/svg" xmlns:xlink="http://www.w3.org/1999/xlink" viewBox="0 0 330 1000"><defs><style>.cls-1{fill:none;}.cls-2{clip-path:url(#clip-path);}.cls-3{fill:#ea7e3c;}.cls-4{fill:#c2e3d3;}.cls-5{fill:#f3d757;}</style><clipPath id="clip-path"><rect class="cls-1" x="-2" y="3" width="334" height="993"/></clipPath></defs><title>Artboard 1</title><g class="cls-2"><path class="cls-1" d="M336.31,178.48a218.83,218.83,0,0,0,119.5-195c0-120.87-98-218.84-218.84-218.84A218.89,218.89,0,0,0,35.16-101.33H336.31Z"/><path class="cls-3" d="M265.26,279a195.36,195.36,0,0,0,89.09-21.35V6.73H84.29A195.65,195.65,0,0,0,69,82.74C69,191.12,156.88,279,265.26,279Z"/><path class="cls-4" d="M12,83.13A259,259,0,0,1,23.27,7.23H-345V770H354V324a251.14,251.14,0,0,1-88,15.84C125.7,339.79,12,224.88,12,83.13Z"/><path class="cls-5" d="M265.26,279C156.88,279,69,191.12,69,82.74a195.65,195.65,0,0,1,15.27-76H19.64a256.83,256.83,0,0,0-11.43,76c0,142,115.09,257.06,257.05,257.06a256.46,256.46,0,0,0,89.09-15.87V257.64A195.36,195.36,0,0,1,265.26,279Z"/><rect class="cls-4" x="-345" y="770" width="698" height="279"/><path class="cls-5" d="M.77,742.47c46.1.81,84.22-40.7,85.14-92.73S50.2,554.89,4.09,554.07H3.33L0,742.44Z"/><path class="cls-3" d="M0,709.32c29.62.18,54-26.62,54.53-60.11S31.61,588.15,2,587.37Z"/><path class="cls-3" d="M125.59,984.55a195.27,195.27,0,0,0,36.5,84L409.18,1025,362.25,759a195.68,195.68,0,0,0-77.51-1.82C178,776,106.75,877.82,125.59,984.55Z"/><path class="cls-5" d="M210.93,1042.36C159.37,984,163.5,895.69,220.42,844.48s145.2-46,197.78,11.42Z"/><rect class="cls-5" x="229" y="869" width="211" height="202"/></g></svg>