<svg id="Layer_1" data-name="Layer 1" xmlns="http://www.w3.org/2000/svg" viewBox="0 0 1366 768"><defs><style>.cls-1{fill:#f8ac8e;}.cls-2{fill:#43616d;}.cls-3{fill:none;stroke:#f3d757;stroke-linecap:round;stroke-miterlimit:10;stroke-width:12px;}</style></defs><title>Artboard 1</title><path class="cls-1" d="M61.24,164.37c1.27-4.54,12.77-7.85,17.19-3,4.07,4.52.91,14.73-3.69,16-3.17.86-6.75-2.59-8.7-4.48S60.39,167.45,61.24,164.37Z"/><path class="cls-2" d="M54.67,193.38c1.27-4.54,12.77-7.85,17.18-3,4.08,4.52.92,14.73-3.69,16-3.16.86-6.74-2.6-8.69-4.49S53.81,196.46,54.67,193.38Z"/><path class="cls-2" d="M58,234.31c-2.16-4.19,4-14.43,10.59-13.84,6.06.54,10.68,10.18,8.15,14.23-1.74,2.78-6.71,2.67-9.43,2.62C64.75,237.26,59.43,237.15,58,234.31Z"/><path class="cls-2" d="M108.15,121.88c-1,4.61-12.27,8.61-17,4-4.35-4.26-1.81-14.65,2.71-16.17,3.1-1,6.89,2.18,9,3.94S108.81,118.76,108.15,121.88Z"/><path class="cls-1" d="M64.24,30.37c1.27-4.54,12.77-7.85,17.19-3,4.07,4.52.91,14.73-3.69,16-3.17.86-6.75-2.59-8.7-4.48S63.39,33.45,64.24,30.37Z"/><path class="cls-2" d="M86.85,78.32c2.86-3.75,14.77-2.57,17.06,3.61,2.11,5.7-4.61,14-9.35,13.47-3.25-.37-5.3-4.91-6.42-7.38C87.1,85.7,84.92,80.86,86.85,78.32Z"/><path class="cls-1" d="M67.71,121.79c4.09-2.35,14.62,3.34,14.34,9.92-.26,6.08-9.67,11.15-13.83,8.82-2.86-1.61-3-6.58-3.06-9.29C65.09,128.7,65,123.38,67.71,121.79Z"/><path class="cls-2" d="M57.67,59.38c1.27-4.54,12.77-7.85,17.18-3,4.08,4.52.92,14.73-3.69,16-3.16.86-6.74-2.6-8.69-4.49S56.81,62.46,57.67,59.38Z"/><path class="cls-2" d="M61,100.31c-2.16-4.19,4-14.43,10.59-13.84,6.06.54,10.68,10.18,8.15,14.23-1.74,2.78-6.71,2.67-9.43,2.62C67.75,103.26,62.43,103.15,61,100.31Z"/><path class="cls-3" d="M111.41,39.68c15.08,38.78,26.2,88.86,6.28,134.68-14.15,32.54-34.45,41.07-49.52,73.78C54.9,276.94,47.43,320.7,70,387.57"/><path class="cls-3" d="M69.28,742.57C49.83,705.12,33,655.81,47.51,607.32,57.81,572.88,77,562,88.2,527.27c9.86-30.57,12.24-75.58-17.92-140.54"/><path class="cls-1" d="M126.65,270.28c-.81,4.64-11.93,9.09-16.8,4.66-4.51-4.09-2.39-14.56,2.07-16.26,3.06-1.17,7,1.91,9.1,3.59S127.19,267.13,126.65,270.28Z"/><path class="cls-2" d="M96.5,286.42c-2.47,4-14.44,4-17.33-1.89-2.67-5.46,3.18-14.41,8-14.34,3.28.05,5.77,4.36,7.13,6.71S98.17,283.7,96.5,286.42Z"/><path class="cls-2" d="M130.29,240.75c-.81,4.65-11.93,9.09-16.8,4.67-4.51-4.09-2.39-14.57,2.07-16.27,3.06-1.17,7,1.91,9.1,3.59S130.83,237.6,130.29,240.75Z"/><path class="cls-2" d="M84.23,317.24c.52-4.68,11.34-9.8,16.48-5.68,4.75,3.81,3.27,14.4-1.08,16.37-3,1.35-7.07-1.49-9.3-3S83.87,320.42,84.23,317.24Z"/><path class="cls-1" d="M137.06,403.9c-.81,4.65-11.93,9.09-16.8,4.67-4.51-4.09-2.39-14.56,2.07-16.27,3.06-1.16,7,1.92,9.1,3.6S137.6,400.76,137.06,403.9Z"/><path class="cls-2" d="M109.77,358.46c-2.47,4-14.44,4-17.33-1.89-2.67-5.47,3.18-14.41,8-14.34,3.28,0,5.77,4.36,7.12,6.71C108.78,351.13,111.44,355.74,109.77,358.46Z"/><path class="cls-1" d="M124.47,313.29c-3.83,2.75-14.88-1.87-15.26-8.44-.35-6.08,8.51-12.06,12.88-10.16,3,1.32,3.63,6.25,4,8.94C126.39,306.15,127.06,311.43,124.47,313.29Z"/><path class="cls-2" d="M140.69,374.38c-.8,4.64-11.92,9.09-16.79,4.66-4.51-4.08-2.39-14.56,2.07-16.26,3.06-1.17,7,1.91,9.1,3.59S141.24,371.23,140.69,374.38Z"/><path class="cls-2" d="M133.32,334c2.57,4-2.57,14.77-9.15,14.84-6.09.06-11.65-9.07-9.53-13.34,1.45-2.94,6.41-3.34,9.12-3.55C126.28,331.73,131.59,331.3,133.32,334Z"/><path class="cls-1" d="M36.24,521.37c1.27-4.54,12.77-7.85,17.19-3,4.07,4.52.91,14.73-3.69,16-3.17.86-6.75-2.59-8.7-4.48S35.39,524.45,36.24,521.37Z"/><path class="cls-2" d="M67.85,508.32c2.86-3.75,14.77-2.57,17.06,3.61,2.11,5.7-4.61,14-9.35,13.47-3.25-.37-5.3-4.91-6.42-7.38C68.1,515.7,65.92,510.86,67.85,508.32Z"/><path class="cls-2" d="M29.67,550.38c1.27-4.54,12.77-7.85,17.18-3,4.08,4.52.92,14.73-3.69,16-3.16.86-6.74-2.6-8.69-4.49S28.81,553.46,29.67,550.38Z"/><path class="cls-2" d="M83.15,478.88c-1,4.61-12.27,8.61-17,4-4.35-4.26-1.81-14.65,2.71-16.17,3.1-1,6.89,2.18,9,3.94S83.81,475.76,83.15,478.88Z"/><path class="cls-1" d="M39.24,387.37c1.27-4.54,12.77-7.85,17.19-3,4.07,4.52.91,14.73-3.69,16-3.17.86-6.75-2.59-8.7-4.48S38.39,390.45,39.24,387.37Z"/><path class="cls-2" d="M61.85,435.32c2.86-3.75,14.77-2.57,17.06,3.61,2.11,5.7-4.61,14-9.35,13.47-3.25-.37-5.3-4.91-6.42-7.38C62.1,442.7,59.92,437.86,61.85,435.32Z"/><path class="cls-1" d="M42.71,478.79c4.09-2.35,14.62,3.34,14.34,9.92-.26,6.08-9.67,11.15-13.83,8.82-2.86-1.61-3-6.58-3.06-9.29C40.09,485.7,40,480.38,42.71,478.79Z"/><path class="cls-2" d="M32.67,416.38c1.27-4.54,12.77-7.85,17.18-3,4.08,4.52.92,14.73-3.69,16-3.16.86-6.74-2.6-8.69-4.49S31.81,419.46,32.67,416.38Z"/><path class="cls-2" d="M36,457.31c-2.16-4.19,4-14.43,10.59-13.84,6.06.54,10.68,10.18,8.15,14.23-1.74,2.78-6.71,2.67-9.43,2.62C42.75,460.26,37.43,460.15,36,457.31Z"/><path class="cls-1" d="M118.67,597.18c-1.27,4.54-12.78,7.83-17.19,2.94-4.07-4.53-.89-14.73,3.71-16,3.17-.86,6.74,2.6,8.7,4.49S119.53,594.1,118.67,597.18Z"/><path class="cls-2" d="M87.05,610.19c-2.87,3.75-14.78,2.55-17.06-3.63-2.1-5.71,4.63-14,9.37-13.46,3.25.38,5.29,4.91,6.41,7.39C86.8,602.8,89,607.65,87.05,610.19Z"/><path class="cls-2" d="M125.28,568.17c-1.27,4.54-12.78,7.84-17.19,2.94-4.07-4.52-.9-14.73,3.71-16,3.17-.85,6.74,2.6,8.69,4.49S126.14,565.09,125.28,568.17Z"/><path class="cls-2" d="M71.72,639.61c1-4.61,12.28-8.6,17-4C93,639.9,90.48,650.28,86,651.8c-3.11,1-6.89-2.19-8.95-4S71.05,642.73,71.72,639.61Z"/><path class="cls-1" d="M115.51,731.17c-1.27,4.54-12.78,7.84-17.19,2.94-4.06-4.52-.89-14.73,3.71-16,3.17-.85,6.74,2.61,8.7,4.5S116.37,728.1,115.51,731.17Z"/><path class="cls-2" d="M93,683.2c-2.86,3.75-14.77,2.54-17-3.63-2.11-5.71,4.62-14,9.36-13.47,3.26.38,5.3,4.92,6.41,7.4C92.72,675.81,94.9,680.66,93,683.2Z"/><path class="cls-1" d="M112.15,639.75c-4.09,2.35-14.61-3.36-14.32-9.94.26-6.08,9.68-11.14,13.83-8.8,2.86,1.61,3,6.58,3.06,9.29C114.78,632.84,114.92,638.16,112.15,639.75Z"/><path class="cls-2" d="M122.12,702.17c-1.27,4.54-12.78,7.83-17.19,2.94-4.07-4.53-.9-14.73,3.71-16,3.17-.86,6.74,2.6,8.69,4.49S123,699.09,122.12,702.17Z"/><path class="cls-2" d="M118.87,661.23c2.15,4.2-4.06,14.43-10.61,13.84-6.06-.56-10.67-10.2-8.13-14.24,1.74-2.78,6.71-2.67,9.43-2.61C112.09,658.27,117.41,658.39,118.87,661.23Z"/></svg>