<svg id="Layer_1" data-name="Layer 1" xmlns="http://www.w3.org/2000/svg" xmlns:xlink="http://www.w3.org/1999/xlink" viewBox="0 0 380 2613.9"><defs><style>.cls-1{fill:none;}.cls-2{clip-path:url(#clip-path);}.cls-3{clip-path:url(#clip-path-2);}.cls-4{fill:#f3d757;}.cls-5{fill:#c2e3d3;}.cls-6{fill:#ea7e3c;}</style><clipPath id="clip-path"><rect class="cls-1" x="-3.63" width="383.63" height="2613.9"/></clipPath><clipPath id="clip-path-2"><rect class="cls-1" x="-1172.68" width="1552.68" height="2613.9"/></clipPath></defs><title>Artboard 1</title><g class="cls-2"><path d="M378.09,830.35a1.5,1.5,0,1,0-1.5-1.5A1.5,1.5,0,0,0,378.09,830.35Z"/><g class="cls-3"><rect class="cls-4" x="-1.36" width="381.36" height="2613.9"/><path class="cls-5" d="M241.77,143.32A69.28,69.28,0,0,1,204,145.75l-.09.44a54.16,54.16,0,0,1-43.62-17.29C150,117.55,143.22,101,128.4,97.2s-28.82,7.59-43.81,10.41C64.75,111.33,44,98.45,35.48,80.15s-6-40.47,3.26-58.4,24.7-32,41.53-43.2c1.74-1.14,3.61-2.42,4.29-4.39.82-2.39-.37-4.95-1.59-7.17-5.22-9.52-11.35-18.56-15.38-28.68s-5.53-21.74-1.24-31.72S82-110.72,92.46-107.81c5.54,1.53,10,5.5,14.75,8.79a69.17,69.17,0,0,0,39.15,12.4c2.38,0,5.1-.28,6.55-2.17,1.13-1.5,1.13-3.56,1.06-5.46-.41-10.35-.95-21,2.14-30.86s10.64-19.1,20.82-21c11.11-2.08,22,4.86,29.7,13.1a80.79,80.79,0,0,1,15.42,23.75c4.1,9.73,7.17,21.32,16.59,26.11,4.22,2.13,9.08,2.48,13.72,3.46A50.15,50.15,0,0,1,288.6-47.78,50.15,50.15,0,0,1,280.12-.26c15.1,7.74,35.05.17,49.51,9.08,11,6.81,15.06,21.45,12.93,34.22-1.25,7.44-5,15.29-12.05,17.92-8.84,3.29-19.29-2.8-27.92,1.06-9.77,4.37-10.39,17.57-12.35,28.1a59,59,0,0,1-15.89,30,45.22,45.22,0,0,1-32.57,23.28Z"/><path class="cls-5" d="M431.29,321.53l.42-.18a54.18,54.18,0,0,1,11.67,45.4c-3.1,15-12.57,30.19-6.91,44.39s23.09,18.85,34.17,29.32c14.69,13.86,16.47,38.2,6.67,55.86S448.15,525,428.18,528s-40.45-1.13-59.37-8.18c-1.95-.72-4.08-1.49-6.07-.87-2.42.74-3.79,3.21-4.86,5.49-4.63,9.82-8.32,20.16-14.15,29.31s-14.35,17.26-25,19.65-23.22-2.5-27-12.68c-2-5.38-1.44-11.35-1.54-17a69.14,69.14,0,0,0-13-39c-1.39-1.93-3.21-4-5.59-4-1.9,0-3.56,1.13-5,2.35-8.14,6.42-16.4,13.09-26.22,16.42s-21.71,2.64-29.24-4.54c-8.22-7.75-9-20.62-6.88-31.72a80.78,80.78,0,0,1,10.15-26.43c5.45-9.08,13-18.35,11.35-28.77-.76-4.66-3.34-8.8-5.27-13.12a49.2,49.2,0,0,1,47.95-69.16c-2.6-16.77-20.43-28.46-21.8-45.4-1-12.9,8.49-24.79,20.08-30.58,6.81-3.4,15.29-5,21.57-.79,7.86,5.21,9.08,17.26,17.27,22,9.29,5.33,20.33-1.93,30-6.55a58.9,58.9,0,0,1,33.59-4.82h0a45.11,45.11,0,0,1,38,12.65h0A69.27,69.27,0,0,1,431.29,321.53Z"/><path class="cls-5" d="M-139.64,628a45.18,45.18,0,0,1,22.37-33.2h0a69.14,69.14,0,0,1,34.58-15.5l-.07-.45a54.2,54.2,0,0,1,46.9.93c13.62,7,25.72,20.21,40.91,18.56s24.36-17.19,37.46-25.06c17.28-10.43,41.22-5.67,55.61,8.55s19.81,35.8,17.37,55.84-11.94,38.66-23.84,55c-1.22,1.69-2.54,3.53-2.48,5.62.07,2.52,2.09,4.54,4,6.15,8.22,7.1,17.19,13.41,24.44,21.49s12.79,18.45,12.26,29.29S121.21,777,110.4,777.9c-5.67.5-11.35-1.65-16.86-3.09a69.1,69.1,0,0,0-41,2.07c-2.27.83-4.68,2-5.37,4.33-.55,1.8.18,3.73.92,5.48,4,9.56,8.21,19.29,8.78,29.66s-3.29,21.62-12.16,27c-9.67,5.84-22.29,3.15-32.4-1.88a80.5,80.5,0,0,1-22.7-16.87c-7.25-7.67-14.17-17.45-24.67-18.63-4.7-.52-9.37.86-14.06,1.56A49.21,49.21,0,0,1-105,766.06a49.26,49.26,0,0,1,2.14-23.26c-16.84-2-32.91,12.09-49.54,8.84-12.7-2.48-21.56-14.83-24.07-27.53-1.43-7.42-.7-16.08,5-21,7.13-6.18,19.07-4.13,25.79-10.75,7.63-7.51,3.59-20.1,1.73-30.65a59,59,0,0,1,4.35-33.65Z"/><path class="cls-6" d="M102.48,93.73c19.73,0,19.75-30.65,0-30.65S82.73,93.73,102.48,93.73Z"/><path class="cls-6" d="M167.18,138.74c19.72,0,19.76-30.64,0-30.64S147.43,138.74,167.18,138.74Z"/><path class="cls-6" d="M99.66,166.84c19.72,0,19.76-30.64,0-30.64S79.91,166.84,99.66,166.84Z"/><path class="cls-6" d="M246,459.41c19.71,0,19.74-30.64,0-30.64S226.19,459.41,246,459.41Z"/><path class="cls-6" d="M288.13,501.6c19.72,0,19.75-30.64,0-30.64S268.38,501.6,288.13,501.6Z"/><path class="cls-6" d="M223.44,526.91c19.71,0,19.75-30.64,0-30.64S203.69,526.91,223.44,526.91Z"/><path class="cls-6" d="M282.5,569.11c19.73,0,19.76-30.64,0-30.64S262.75,569.11,282.5,569.11Z"/><path class="cls-6" d="M88.42,664.75c19.71,0,19.75-30.65,0-30.65S68.67,664.75,88.42,664.75Z"/><path class="cls-6" d="M71.54,729.44c19.72,0,19.75-30.64,0-30.64S51.79,729.44,71.54,729.44Z"/><path class="cls-6" d="M125,782.89c19.71,0,19.75-30.65,0-30.65S105.24,782.89,125,782.89Z"/><path class="cls-6" d="M125,695.69c19.71,0,19.75-30.65,0-30.65S105.24,695.69,125,695.69Z"/><path class="cls-5" d="M305,1092.33l-.11.45a54.13,54.13,0,0,1-43.61-17.29c-10.28-11.35-17-27.92-31.84-31.69s-28.83,7.58-43.81,10.4c-19.84,3.72-40.59-9.16-49.11-27.46s-6-40.47,3.25-58.39,24.71-32,41.53-43.21c1.74-1.14,3.61-2.42,4.29-4.4.82-2.38-.37-4.94-1.58-7.16-5.23-9.52-11.42-18.57-15.38-28.68s-5.53-21.76-1.24-31.72,15.69-17.3,26.1-14.41c5.54,1.54,10,5.51,14.76,8.8A69.2,69.2,0,0,0,247.38,860c2.38,0,5.09-.28,6.54-2.17,1.14-1.5,1.14-3.57,1.06-5.46-.41-10.35-.94-21,2.15-30.86s10.63-19.1,20.82-21c11.1-2.08,22,4.86,29.69,13.1a80.82,80.82,0,0,1,15.43,23.75c4.1,9.73,7.16,21.32,16.58,26.11,4.22,2.13,9.08,2.47,13.72,3.4a49.19,49.19,0,0,1,27.74,79.45c15.09,7.74,35,.17,49.5,9.08,11,6.81,15.06,21.45,12.93,34.22-1.25,7.44-5,15.29-12.05,17.92-8.84,3.29-19.29-2.8-27.92,1.06-9.78,4.37-10.39,17.57-12.33,28.1a59.07,59.07,0,0,1-15.89,30h0A45.25,45.25,0,0,1,342.76,1090v-.06A69.14,69.14,0,0,1,305,1092.33Z"/><path class="cls-5" d="M-11.22,1383.2l-.45.09a54.26,54.26,0,0,1-1-46.91c6.43-13.86,19.12-26.54,16.85-41.64s-18.16-23.63-26.6-36.32c-11.14-16.85-7.33-41,6.23-55.92s34.94-21.28,55.07-19.68,39.12,10.31,56,21.48c1.74,1.14,3.63,2.4,5.67,2.27,2.52-.17,4.43-2.27,6-4.24,6.74-8.52,12.67-17.73,20.43-25.33s17.9-13.53,28.76-13.45,22,7.73,23.42,18.51c.74,5.67-1.13,11.35-2.38,17a69.05,69.05,0,0,0,3.78,40.86c.92,2.19,2.27,4.54,4.54,5.19,1.83.47,3.72-.34,5.44-1.14,9.38-4.4,18.95-9,29.26-10s21.74,2.38,27.45,11c6.23,9.43,4.07,22.15-.53,32.46a80.48,80.48,0,0,1-15.89,23.44c-7.37,7.56-16.86,14.89-17.59,25.41-.33,4.72,1.25,9.34,2.13,14a49.2,49.2,0,0,1-62.42,56.41c-1.29,16.92,13.45,32.37,10.88,49.13-1.95,12.8-13.91,22.21-26.51,25.2-7.35,1.75-16,1.36-21.19-4.13-6.47-6.87-4.93-18.89-11.82-25.33-7.82-7.3-20.24-2.74-30.64-.45a58.9,58.9,0,0,1-33.8-3h0a45.17,45.17,0,0,1-34-21h0A69.26,69.26,0,0,1-11.22,1383.2Z"/><path class="cls-5" d="M168.39,1588.91l-.12-.44a54.12,54.12,0,0,1,46.44-6.54c14.53,4.73,28.63,15.89,43.36,11.79s21.3-20.86,32.91-30.71c15.4-13.06,39.81-12.13,56.26-.44s25.27,32.19,26.11,52.36S367.73,1655,358.59,1673c-.94,1.87-1.94,3.91-1.55,6,.46,2.47,2.77,4.12,4.92,5.43,9.26,5.68,19.11,10.5,27.56,17.32s15.56,16.18,16.77,27-5.08,22.79-15.61,25.45c-5.57,1.41-11.42.17-17.14-.38a69.13,69.13,0,0,0-40.14,8.61c-2.08,1.13-4.29,2.74-4.62,5.12-.25,1.87.78,3.65,1.78,5.26,5.48,8.8,11.19,17.75,13.4,27.88s.21,21.86-7.7,28.57c-8.63,7.29-21.5,6.65-32.29,3.3a80.54,80.54,0,0,1-25.15-13c-8.38-6.42-16.78-15-27.32-14.46-4.73.23-9.08,2.34-13.62,3.78a49.22,49.22,0,0,1-63.42-55.33c-16.94.73-30.54,17.17-47.5,16.62-12.94-.42-23.69-11.19-28.14-23.35-2.61-7.08-3.26-15.74,1.58-21.57,6.07-7.23,18.16-7.11,23.75-14.75,6.33-8.63.34-20.43-3.18-30.52a59,59,0,0,1-1-33.93h0a45.17,45.17,0,0,1,16.78-36.32h0A69.22,69.22,0,0,1,168.39,1588.91Z"/><path class="cls-5" d="M-24,2198v.44a54.11,54.11,0,0,1-46.2-8.18c-12.33-9-22.29-23.94-37.54-24.66s-26.73,13.22-40.86,19c-18.7,7.63-41.6-.82-53.62-17s-14-38.44-8.52-57.89,17.77-36.32,32-50.65c1.46-1.49,3-3.1,3.31-5.16.33-2.51-1.36-4.78-3-6.7-7-8.29-14.92-15.89-20.83-25s-9.77-20.2-7.57-30.84,11.89-20.1,22.7-19.36c5.73.39,10.89,3.4,16.17,5.67a69.06,69.06,0,0,0,40.86,4.29c2.33-.46,4.93-1.28,6-3.4.83-1.72.4-3.72,0-5.56-2.47-10.07-5.12-20.35-4.08-30.65s6.59-20.86,16.18-24.76c10.46-4.27,22.51.34,31.78,6.87a80.73,80.73,0,0,1,19.87,20.18c6,8.71,11.3,19.45,21.49,22.23,4.54,1.25,9.4.6,14.13.63A49.22,49.22,0,0,1,27.16,2017a49.34,49.34,0,0,1-5.74,22.72c16.33,4.54,34.36-6.81,50.3-1.06,12.17,4.42,19.07,18,19.54,30.93.26,7.55-1.81,16-8.21,20-7.94,5-19.48,1.13-27.15,6.63-8.69,6.24-6.65,19.29-6.45,30a59,59,0,0,1-9.51,32.57h0a45.22,45.22,0,0,1-27.24,29.33h0A69.19,69.19,0,0,1-24,2198Z"/><path class="cls-5" d="M180.59,2344.54l-.44.09a54.19,54.19,0,0,1-1-46.91c6.41-13.85,19.1-26.53,16.83-41.64s-18.16-23.63-26.59-36.32c-11.14-16.84-7.33-41,6.22-55.92s34.94-21.28,55.08-19.68,39.11,10.32,55.93,21.48c1.75,1.14,3.65,2.39,5.68,2.27,2.52-.17,4.41-2.27,6-4.24,6.81-8.5,12.69-17.73,20.43-25.31s17.9-13.54,28.75-13.46,22,7.73,23.44,18.5c.72,5.67-1.14,11.35-2.41,17a69.06,69.06,0,0,0,3.79,40.86c.92,2.2,2.27,4.54,4.54,5.2,1.83.47,3.72-.34,5.44-1.13,9.38-4.4,18.94-9,29.26-10s21.74,2.38,27.45,11c6.23,9.42,4.07,22.13-.53,32.45a80.61,80.61,0,0,1-15.89,23.44c-7.37,7.55-16.85,14.87-17.59,25.41-.33,4.72,1.25,9.34,2.14,14a49.21,49.21,0,0,1-62.42,56.43c-1.29,16.91,13.44,32.35,10.88,49.13-1.95,12.79-13.91,22.21-26.51,25.19-7.34,1.75-16,1.36-21.19-4.13-6.47-6.87-4.93-18.89-11.82-25.32-7.82-7.31-20.22-2.75-30.64-.45a58.91,58.91,0,0,1-33.8-3h0a45.22,45.22,0,0,1-34.05-21h0A69.31,69.31,0,0,1,180.59,2344.54Z"/><path class="cls-5" d="M17.05,2786.49a45.24,45.24,0,0,1-34-21h0a69.15,69.15,0,0,1-16.93-33.89l-.45.08a54.17,54.17,0,0,1-1-46.9c6.42-13.87,19.11-26.54,16.84-41.65s-18.16-23.63-26.6-36.32c-11.13-16.84-7.33-41,6.22-55.92s35-21.28,55.08-19.68,39.12,10.32,55.94,21.48c1.74,1.14,3.64,2.4,5.67,2.27,2.52-.17,4.42-2.27,6-4.24,6.81-8.51,12.69-17.74,20.43-25.32s17.9-13.54,28.75-13.45,22,7.73,23.44,18.5c.74,5.67-1.14,11.35-2.41,17a69.3,69.3,0,0,0,3.79,40.86c.92,2.19,2.27,4.54,4.54,5.19,1.83.48,3.73-.35,5.44-1.14,9.39-4.4,19-9,29.26-10s21.75,2.39,27.46,11c6.23,9.44,4.07,22.15-.54,32.48A80.52,80.52,0,0,1,208,2649.32c-7.36,7.56-16.86,14.89-17.59,25.42-.33,4.72,1.25,9.34,2.15,14a49.2,49.2,0,0,1-62.43,56.42c-1.28,16.92,13.44,32.37,10.89,49.13-2,12.81-13.92,22.22-26.52,25.2-7.34,1.74-16,1.36-21.19-4.13-6.46-6.87-4.91-18.89-11.81-25.32-7.82-7.31-20.24-2.75-30.65-.46a58.94,58.94,0,0,1-33.81-2.95Z"/><path class="cls-6" d="M203.1,975.33H203l4.07-.56h-.28l4.07.54-.25-.07,3.67,1.54-.15-.08,3.1,2.39-.23-.23,2.4,3.09a1.11,1.11,0,0,1-.17-.3l1.54,3.66a3.31,3.31,0,0,1-.12-.45l.55,4.07a2.58,2.58,0,0,1,0-.68l-.54,4.08a2.73,2.73,0,0,1,.15-.56l-1.55,3.67.18-.32-2.39,3.1a1.31,1.31,0,0,1,.23-.24l-3.1,2.4.21-.12-3.65,1.55H211l-4.07.54h.28l-4.08-.54h.1a11.77,11.77,0,0,0,6.12.27,15.79,15.79,0,0,0,12.74-11l.54-4.07a15.3,15.3,0,0,0-2.09-7.73l-2.39-3.11a15.41,15.41,0,0,0-6.81-3.94c-.83-.17-3.32-.53-4.18-.57H207c-.55,0-3.63.41-4.17.55h-.21c-.25.07-3.51,1.45-3.74,1.58l-.14.07c-.21.13-3,2.27-3.17,2.44l-.11.13a14.64,14.64,0,0,0-1.29,1.65,14.34,14.34,0,0,0-1.29,1.7.8.8,0,0,0-.08.16c-.34.64-1.36,3.06-1.58,3.74a1.7,1.7,0,0,1-.1.37c-.2.87-.49,3.26-.57,4.17v.64c0,.53.44,3.64.57,4.16v.19l.06.18c.11.36,1.4,3.4,1.57,3.74l.11.2c.23.41,2.1,2.8,2.45,3.16a1.7,1.7,0,0,0,.22.24c.4.37,2.73,2.18,3.18,2.44s3.21,1.43,3.73,1.59l.2.07c.26.07,3.89.55,4.17.55H207c1,0,3.21-.43,4.22-.56A15.32,15.32,0,0,0,221.87,986l-1.54-3.65a15.36,15.36,0,0,0-5.49-5.49l-3.67-1.56a15.4,15.4,0,0,0-8.14,0Z"/><path class="cls-6" d="M196,1107.94h7.55a15.81,15.81,0,0,0,10.83-4.54,15.31,15.31,0,0,0,0-21.64l0,0a15.92,15.92,0,0,0-10.83-4.54H196a15.85,15.85,0,0,0-10.84,4.54,15.2,15.2,0,0,0,0,21.67,15.89,15.89,0,0,0,10.84,4.54Z"/><path class="cls-6" d="M312.9,1119.26h7.55a15.89,15.89,0,0,0,10.84-4.54,15.35,15.35,0,0,0,0-21.67,16,16,0,0,0-10.84-4.54H312.9a15.76,15.76,0,0,0-10.83,4.54,15.3,15.3,0,0,0,0,21.64l0,0A15.92,15.92,0,0,0,312.9,1119.26Z"/><path class="cls-6" d="M259.86,1028.49v3.77a15.4,15.4,0,0,0,15.32,15.38l4.08-.55a15.31,15.31,0,0,0,6.81-3.94,15.92,15.92,0,0,0,4.54-10.84v-3.76a15.75,15.75,0,0,0-15.32-15.33l-4.08.55a15.33,15.33,0,0,0-6.81,4,15.87,15.87,0,0,0-4.48,10.83Z"/><path class="cls-6" d="M101.66,1383.29h7.55a15.78,15.78,0,0,0,10.84-4.54,15.57,15.57,0,0,0,4.54-10.84c-.18-4-1.47-8.07-4.54-10.83a15.94,15.94,0,0,0-10.84-4.54h-7.55a15.8,15.8,0,0,0-10.82,4.54,15.29,15.29,0,0,0,0,21.64l0,0a15.89,15.89,0,0,0,10.82,4.54Z"/><path class="cls-6" d="M63.83,1450.89l4-3.5a15.75,15.75,0,0,0,0-21.66A15.36,15.36,0,0,0,57,1421.19l-4.07.54a15.41,15.41,0,0,0-6.81,3.94l-4,3.5a15.75,15.75,0,0,0,0,21.66c2.93,2.68,6.81,4.68,10.84,4.54l4.07-.54A15.3,15.3,0,0,0,63.83,1450.89Z"/><path class="cls-6" d="M117.29,1507.87l11.24-4a16.32,16.32,0,0,0,9.15-7,15.62,15.62,0,0,0,1.55-11.81c-2.4-7.43-10.77-13.62-18.85-10.7l-11.24,4a16.39,16.39,0,0,0-9.16,7,15.69,15.69,0,0,0-1.54,11.8c2.41,7.44,10.76,13.62,18.85,10.71Z"/><path class="cls-6" d="M169.33,1394.38v3.77a15.75,15.75,0,0,0,15.33,15.32l4.07-.55a15.29,15.29,0,0,0,6.81-3.93,15.89,15.89,0,0,0,4.54-10.84v-3.77a15.74,15.74,0,0,0-15.32-15.32l-4.08.54a15.41,15.41,0,0,0-6.81,3.94,15.92,15.92,0,0,0-4.48,10.84Z"/><path class="cls-6" d="M218.6,1741.63c19.72,0,19.75-30.64,0-30.64S198.85,1741.63,218.6,1741.63Z"/><path class="cls-6" d="M124.3,1734.09H128a15.74,15.74,0,0,0,15.32-15.32l-.54-4.07a15.37,15.37,0,0,0-3.95-6.81,15.87,15.87,0,0,0-10.83-4.54h-3.78a11.51,11.51,0,0,0-5.9,1.31,15.8,15.8,0,0,0-9.42,14l.55,4.08a15.32,15.32,0,0,0,3.94,6.8,15.82,15.82,0,0,0,10.83,4.54Z"/><path class="cls-6" d="M162.08,1817.13c19.72,0,19.75-30.64,0-30.64S142.33,1817.13,162.08,1817.13Z"/><path class="cls-6" d="M229.92,2198.05c19.71,0,19.75-30.65,0-30.65S210.17,2198.05,229.92,2198.05Z"/><path class="cls-6" d="M305,2209.42a4.13,4.13,0,0,1,.24-.7l-1.55,3.66a7.66,7.66,0,0,1,.55-1l-2.39,3.11a6.46,6.46,0,0,1,1-1.06l-3.1,2.4a7.2,7.2,0,0,1,1.28-.76l-3.66,1.54a7.8,7.8,0,0,1,1.43-.41l-4.08.56a7.32,7.32,0,0,1,1.48,0l-4.08-.55a7.32,7.32,0,0,1,1.14.29l-3.67-1.55.34.15a17.24,17.24,0,0,0,11.82,1.54,15.55,15.55,0,0,0,9.15-7c1.88-3.55,2.82-7.87,1.54-11.81-1.13-3.56-3.47-7.57-7-9.16s-6-2.59-9.88-2.57a21.41,21.41,0,0,0-9.9,2.56,20.48,20.48,0,0,0-10.15,12.64,15.88,15.88,0,0,0,1.55,11.8,15.62,15.62,0,0,0,9.16,7c3.92.89,8.33.7,11.81-1.55a16.09,16.09,0,0,0,7-9.16Z"/><path class="cls-6" d="M282.73,2133.92h3.77a15.74,15.74,0,0,0,15.32-15.32l-.54-4.08a15.41,15.41,0,0,0-3.94-6.81,15.94,15.94,0,0,0-10.84-4.54h-3.77a11.56,11.56,0,0,0-5.91,1.33,15.72,15.72,0,0,0-9.41,14l.54,4.07a15.41,15.41,0,0,0,3.94,6.81,15.87,15.87,0,0,0,10.84,4.48Z"/><path class="cls-6" d="M222.14,2239.35v3.77a11.57,11.57,0,0,0,1.32,5.91,13.75,13.75,0,0,0,8.09,8.09,11.49,11.49,0,0,0,5.92,1.32l4.06-.54a15.41,15.41,0,0,0,6.81-3.94,15.89,15.89,0,0,0,4.54-10.84v-3.77a14.88,14.88,0,0,0-9.42-14,11.63,11.63,0,0,0-5.9-1.31l-4.08.54a15.33,15.33,0,0,0-6.81,3.95,15.89,15.89,0,0,0-4.48,10.83Z"/><path class="cls-6" d="M20.14,2078.18l-1.94,2a15.77,15.77,0,0,0,0,21.67l3.1,2.4a15.23,15.23,0,0,0,7.74,2.08l4.06-.54a15.41,15.41,0,0,0,6.81-3.94l2-2a15.77,15.77,0,0,0,0-21.67l-3.11-2.39A15.1,15.1,0,0,0,31,2073.7l-4.07.54a15.35,15.35,0,0,0-6.81,3.94Z"/><path class="cls-6" d="M29,2201.26c19.71,0,19.75-30.64,0-30.64S9.28,2201.26,29,2201.26Z"/><path class="cls-6" d="M51.89,2162.67h2a11.57,11.57,0,0,0,5.91-1.32,11.47,11.47,0,0,0,4.92-3.17,17,17,0,0,0,4.54-10.83l-.54-4.08a15.41,15.41,0,0,0-3.94-6.81l-3.1-2.39a15.36,15.36,0,0,0-7.74-2.09H52a15.74,15.74,0,0,0-15.32,15.32l.54,4.08a15.41,15.41,0,0,0,3.94,6.81l3.11,2.4a15.16,15.16,0,0,0,7.73,2.09Z"/><path class="cls-6" d="M50.68,2197.93v2a17,17,0,0,0,4.54,10.82,17.11,17.11,0,0,0,10.84,4.54l4.07-.54a15.22,15.22,0,0,0,6.81-3.95l2.29-3.19a15.19,15.19,0,0,0,2.08-7.73v-2a16.89,16.89,0,0,0-4.54-10.83A17.11,17.11,0,0,0,66,2182.52l-4.08.56a15.22,15.22,0,0,0-6.81,3.94l-2.39,3.09a15.25,15.25,0,0,0-2.09,7.73Z"/><path class="cls-6" d="M175,1775.45c19.73,0,19.76-30.64,0-30.64S155.21,1775.45,175,1775.45Z"/><path class="cls-6" d="M51.54,2549.3l1.94-2a11.32,11.32,0,0,0,3.17-4.92,13.82,13.82,0,0,0,0-11.82,11.32,11.32,0,0,0-3.17-4.92l-3.09-2.4a15.35,15.35,0,0,0-7.73-2.09l-4.08.55a15.22,15.22,0,0,0-6.81,3.94l-1.94,1.94a15.74,15.74,0,0,0,0,21.68l3.1,2.39a15.3,15.3,0,0,0,7.73,2.09l4.07-.55A15.24,15.24,0,0,0,51.54,2549.3Z"/><path class="cls-6" d="M58,2583.25v-1.94A15.74,15.74,0,0,0,42.66,2566l-4.08.55a15.29,15.29,0,0,0-6.81,3.93l-2.39,3.1a15.16,15.16,0,0,0-2.09,7.74v1.94a17,17,0,0,0,4.54,10.84,17,17,0,0,0,10.84,4.49l4.06-.55a15.17,15.17,0,0,0,6.81-3.94l2.4-3.11a15.31,15.31,0,0,0,2.1-7.73Z"/><path class="cls-6" d="M67.94,2496.08v3.4a11.52,11.52,0,0,0,1.33,5.9,13.79,13.79,0,0,0,8.09,8.1,11.57,11.57,0,0,0,5.91,1.32l4.07-.55a15.35,15.35,0,0,0,6.81-3.94l2.4-3.1a15.19,15.19,0,0,0,2.08-7.73v-3.4a11.57,11.57,0,0,0-1.31-5.91,13.79,13.79,0,0,0-8.1-8.09,11.54,11.54,0,0,0-5.91-1.33l-4.06.56a15.26,15.26,0,0,0-6.81,3.94l-2.4,3.1A15.41,15.41,0,0,0,67.94,2496.08Z"/><path class="cls-6" d="M95.3,2512.33H94.16a15.72,15.72,0,0,0-15.32,15.32l.54,4.06a15.3,15.3,0,0,0,3.94,6.81l3.1,2.4a15.37,15.37,0,0,0,7.74,2.1H95.3a11.52,11.52,0,0,0,5.9-1.33,13.78,13.78,0,0,0,8.09-8.09,11.52,11.52,0,0,0,1.33-5.9l-.56-4.08a15.22,15.22,0,0,0-3.94-6.81l-3.09-2.39a15.16,15.16,0,0,0-7.73-2.09Z"/></g></g></svg>